# xmcd CD database file
#
# Track frame offsets:
#	225
#	17071
#	30750
#	43033
#	62133
#	81080
#	95669
#	111368
#	126532
#	145528
#	160730
#	175615
#
# Disc length: 2560 seconds
#
# Revision: 0
# Processed by: cddbd v1.4PL0 Copyright (c) Steve Scherf et al.
# Submitted via: Feurio! 1.65 - http://www.feurio.com
#
DISCID=9609fd0c
DTITLE=The Conrads - Jack Of All Tirades
DYEAR=2002
DGENRE=blues
TTITLE0=Jack Of All Tirades
TTITLE1=Hole In Your Heart
TTITLE2=Caravan
TTITLE3=Snake Tattoo
TTITLE4=Nobody's Baby
TTITLE5=Love In Vain
TTITLE6=Jealous Kind
TTITLE7=Tijuana Women
TTITLE8=Working Man's Blues
TTITLE9=Dodging Bullets
TTITLE10=Sittin' And Thinkin'
TTITLE11=Jack's Waltz
EXTD=
EXTT0=
EXTT1=
EXTT2=
EXTT3=
EXTT4=
EXTT5=
EXTT6=
EXTT7=
EXTT8=
EXTT9=
EXTT10=
EXTT11=
PLAYORDER=
